Patient4_TMGait_0pt3_02_left_26_EMG.mot
version=1
nRows=29
nColumns=33
inDegrees=no
endheader
time	1LAddLong	2LGlutMax	3LGlutMed	4LIliopsoas	5LSemiMemb	6LBicFemLong	7LRecFem	8LVastMed	9LVastLat	10LGasMed	11LTibAnt	12lTibPost	13LPeroneusLong	14LSol	15LExtDigLong	16LFlexDigLong	17RAddLong	18RGlutMax	19RGlutMed	20RIliopsoas	21RSemiMemb	22RBicFemLong	23RRecFem	24RVastMed	25RVastLat	26RGasMed	27RTibAnt	28RTibPost	29RPeroneusLong	30RSol	31RExtDigLong	32RFlexDigLong
52.31	0.006866	-0.017548	-0.066071	0.002747	-0.015869	0.011292	0.059204	-0.000458	-0.033569	0.10376	-0.006866	-0.006256	-0.15305	-0.13611	0.13565	0.00061	-0.03067	-0.037994	0.11536	-0.040894	0.03067	-0.018768	-0.23132	0.34256	0.19043	-0.000916	-0.37048	-0.008698	-0.004883	0.15274	-0.003052	-0.006714
52.311	0.018463	0.032043	-0.062714	0.01297	-0.04303	-0.015717	0.011292	0.006409	0.009918	0.054626	-0.026093	-0.009308	-0.029755	-0.079956	0.1239	0.009766	-0.016937	-0.006866	0.11032	-0.001831	0.003815	-0.032806	-0.046692	0.20844	0.14694	0.002594	-0.29114	-0.000153	-0.3273	0.11353	-0.006714	-0.00351
52.312	0.007324	0.035095	-0.045013	-0.004578	0.014801	-0.030975	0.046387	0.006561	0.021515	-0.10696	0.028992	-0.008087	0.076599	-0.10391	0.15091	-0.000153	-0.019379	0.006866	0.159	0.027161	-0.005341	0.003815	0.030365	0.10361	0.10819	0.001984	-0.089722	0.001221	-0.63126	0.068207	-0.006714	-0.000153
52.313	0.006104	0.030823	-0.063324	0.01236	0.061798	-0.004578	0.089874	0	0.027008	-0.035248	0.004883	-0.011902	-0.035858	-0.092468	0.093384	0.008392	0.00473	0.006866	0.064697	-0.052948	0.052032	-0.000916	-0.07782	0.018005	0.11246	0.003967	0.14572	-0.002899	-0.38223	0.072174	-0.004578	0.001831
52.314	0.012817	0.015411	-0.073547	0.004425	0.034943	-0.007172	0.11749	-0.005951	0.023346	0.12482	0.003357	-0.003204	-0.10544	-0.029755	0.018158	0.019989	0.016937	-0.017853	-0.32486	0.001984	0.070343	-0.044708	-0.19516	-0.015564	0.068054	0.003662	0.13702	-0.005188	0.61081	0.054321	-0.003662	-0.007782
52.315	0.01297	0.036774	-0.09903	0.002441	0.016022	0.015717	0.13306	0.005493	0.033569	0.051117	0.005341	-0.014496	0.067444	0.020599	-0.030518	0.016479	0.017853	0.04715	-0.4808	-0.007935	0.12878	-0.095978	-0.13565	-0.20142	0.015411	0.002441	-0.00061	-0.00412	0.47089	0.05722	-0.00351	-0.007477
52.316	-0.005341	0.029449	-0.13458	0.001373	-0.007019	0.017242	0.14893	0.000763	0.045166	0.10925	0.005646	-0.016022	0.14008	-0.040894	-0.065765	0.001831	-0.005188	0.070343	-0.23514	-0.02533	0.14603	-0.068207	-0.023499	-0.21133	0.023651	-0.000916	0.016174	-0.007019	-0.031128	0.12482	-0.006256	-0.015564
52.317	-0.00885	0.007782	-0.085602	-0.007172	0.009766	-0.002747	0.088196	0.007629	0.029602	0.13275	-0.003052	-0.003204	0.067749	-0.26382	-0.054169	-0.023499	-0.026093	0.076904	0.2948	0.088654	0.083771	0.012054	-0.26596	-0.12589	0.029144	-0.007477	0.044556	0.001221	0.34485	0.13702	-0.003357	-0.014038
52.318	-0.002594	0.042267	-0.013123	-0.008087	0.004272	-0.037842	0.053864	0.009613	0.023499	-0.003815	0.024719	-0.002136	0.067902	-0.31921	-0.046539	-0.031891	-0.026093	0.10956	0.38147	0.1207	-0.052185	0.042877	-0.19379	-0.090027	0.026093	-0.001373	-0.002441	-0.004425	0.61783	0.10529	-0.010223	-0.011749
52.319	0.005951	0.06134	-0.10376	-0.005341	-0.02182	-0.075073	-0.004425	0.011444	0.017242	-0.10483	0.036774	-0.001831	0.49622	-0.16266	0.058594	-0.027618	-0.032654	0.043945	0.60455	0.013733	-0.21637	0.095825	-0.037537	0.010834	-0.011444	0.002899	0.019226	-0.004578	0.077667	0.090637	-0.003204	-0.014343
52.32	0.011139	-0.001373	-0.13397	0.008545	-0.016785	-0.05661	0.010223	-0.007782	0.052948	-0.15823	0.042419	0.001526	0.078735	-0.082397	0.019379	-0.00946	-0.003204	0.031891	0.30868	-0.17761	-0.076904	0.096741	0.061493	-0.045166	-0.065308	0.000153	0.04776	0.000153	-0.52948	0.092163	-0.006409	-0.012054
52.321	0.020599	-0.027771	-0.14526	0.010376	0.058441	-0.016327	-0.008392	-0.003052	0.042725	-0.10712	0.042725	-0.006866	-0.47257	0.048828	0.12497	0.003204	0.018921	-0.030975	0.11932	-0.26718	0.063324	0.036774	0.090485	-0.16632	-0.080872	0.002747	0.048981	-0.001984	-1.0483	0.088043	-0.00061	-0.005951
52.322	0.010223	-0.008698	-0.089874	0.013885	0.055237	0.012512	-0.025787	0.006866	0.035858	-0.047607	0.040588	-0.008087	-0.25436	0.043945	-0.024261	-0.002594	0.052643	-0.002289	0.33997	-0.095673	0.24643	0.000153	0.093842	-0.17639	-0.054779	0.004272	0.10132	0.000458	-0.48584	0.044708	-0.00824	-0.005493
52.323	0.004883	-0.000458	-0.1207	0.019836	0.023804	0.014648	0.023956	0.004425	0.030518	-0.084686	-0.045471	-0.00824	-0.083618	0.12329	-0.028992	-0.003967	0.037689	-0.007019	0.56	0.068665	0.34409	-0.058746	0.1033	-0.17624	-0.051727	0.002899	0.072937	-0.000153	0.67291	-0.009766	-0.002289	-0.008545
52.324	0.000763	-0.044861	-0.13382	0.013275	0.005493	-0.001984	0.024872	-0.005951	0.034637	-0.063171	-0.024109	-0.00824	0.070648	0.22751	0.061798	-0.005951	0.023193	-0.026855	0.40054	0.19669	0.18677	-0.11292	0.10208	-0.16266	-0.071106	-0.003204	0.13199	-0.000305	0.97672	0.05661	-0.005798	-0.006409
52.325	0.009766	-0.05661	-0.044708	0.011902	0.001678	0.000305	0.077057	-0.002594	0.035706	-0.05722	-0.009155	-0.013275	0.22201	0.25513	0.12802	-0.00412	0.019226	-0.050201	0.13886	0.18921	0.019836	-0.09491	-0.025635	-0.16846	-0.084076	-0.010223	0.22812	0.00061	0.18707	0.049896	-0.001068	-0.00946
52.326	-0.007935	-0.061951	-0.11688	-0.002899	-0.002441	0.016632	0.12817	0.007172	0.045166	-0.075989	0.10742	-0.018463	0.30579	0.19348	0.13901	0.002441	-0.027466	-0.019073	0.11795	0.10971	0.11795	-0.067139	-0.065002	-0.091095	-0.044556	-0.009766	0.28214	0.003052	0.1503	0.0177	-0.005798	0.003204
52.327	0.001373	-0.079346	-0.17929	0	-0.006409	0.032654	0.13001	0.001068	0.048523	-0.074768	0.17654	-0.015106	-0.019989	0.07309	-0.10147	-0.01236	-0.11047	-0.039825	-0.020599	0.057678	0.044403	-0.092316	-0.025787	0.022888	-0.02121	-0.014954	0.43182	0.001068	0.084991	0.021515	-0.005798	-0.005951
52.328	0.006409	-0.10376	-0.15915	0.010834	-0.004272	0.025482	0.12024	0.004272	0.046387	-0.052948	0.19394	-0.02121	-0.18097	-0.002747	-0.2887	-0.019989	-0.12695	-0.097961	-0.097656	0.059357	-0.063019	-0.010681	0.014954	0.041046	-0.037231	-0.00946	0.42999	0.002594	0.040894	-0.037537	-0.001831	-0.014038
52.329	-0.002136	-0.063019	-0.074921	0.007782	-0.007935	0.025787	0.10284	0.006409	0.022888	-0.055695	-0.085297	-0.013275	-0.16663	-0.12756	-0.48355	-0.011444	-0.09201	-0.13504	0.00412	0.034943	0.054932	0.082092	0.007629	0.001831	-0.094147	-0.005493	0.020752	0.002441	0.10605	-0.034637	-0.005188	0.001068
52.33	0.009308	-0.045929	-0.037384	0.004883	-0.035706	0.014496	0.10315	0.003052	0.035095	-0.062866	-0.12878	-0.007477	-0.15488	-0.10559	-0.37659	-0.01358	-0.078583	-0.076599	-0.064392	0.027771	0.18036	0.08728	0.055389	-0.009918	-0.12573	-0.005646	0.032806	0.002899	0.074615	-0.028534	-0.00351	-0.009003
52.331	0.011749	-0.081329	-0.026855	-0.018005	-0.016479	-0.015564	0.090332	0.001984	0.021515	-0.095978	-0.082855	-0.014801	-0.08255	0.027466	0.034027	-0.006104	-0.034637	-0.085297	-0.17517	0.075073	0.093231	0.10925	0.025635	-0.025787	-0.10223	0.00351	-0.36987	0.007782	0.042419	-0.033722	-0.005341	-0.007477
52.332	0.003815	-0.070953	-0.11337	-0.014954	0.026093	-0.031891	0.097198	0.003052	0.022583	-0.063629	-0.045471	-0.006104	-0.10605	0.090179	0.15808	-0.002747	-0.010681	-0.11398	-0.088043	0.060272	0.034485	0.12436	0.058289	-0.068512	-0.11429	0.007019	-0.34561	0.007324	0.007782	-0.015564	-0.006714	-0.005188
52.333	0.004272	-0.081329	-0.14404	-0.003357	0.03891	-0.010834	0.10208	0.008545	-0.010529	-0.047913	-0.087738	-0.016785	-0.079498	0.042572	0.1947	0.00473	-0.0177	-0.14023	-0.16083	0.0383	0.057678	0.094299	0.057526	-0.12497	-0.10529	0.001984	-0.056458	0.004425	0.07309	-0.019531	-0.003967	-0.001373
52.334	-0.001068	-0.081177	-0.10101	-0.003357	0.024872	-0.00824	0.10162	0.004578	-0.011597	-0.022278	-0.027618	-0.014954	-0.039978	0.076599	0.1944	0.014801	-0.011292	-0.10559	-0.19959	-0.013428	0.1004	0.055084	0.002899	-0.15991	-0.03067	0.00061	-0.18402	0.004883	0.16861	-0.033875	-0.004425	-0.00946
52.335	0.001678	-0.042267	-0.062714	0.010986	0.001526	-0.00351	0.080109	0.001373	0.002594	0.00473	0.053406	-0.013885	0.033875	0.06012	0.053101	-0.010223	0.003052	-0.10452	-0.089264	-0.020294	0.11643	0.022583	0.016785	-0.1712	0.018311	0.004425	-0.26032	0.001373	0.14542	0.041656	-0.001068	-0.011139
52.336	-0.000763	-0.068817	-0.13031	0.009155	-0.027313	0.032043	0.073547	-0.003815	-0.004578	-0.005646	0.031586	-0.01297	-0.084839	0.047455	0.019226	-0.010223	0.003204	-0.15533	-0.047913	-0.006866	0.14984	0.012207	0.064697	-0.23025	0.10574	0.000916	-0.24384	0.00412	0.053864	0.001831	-0.006866	-0.016937
52.337	-0.003204	-0.075836	-0.12299	0.00946	-0.076904	0.051575	0.089264	0	-0.009613	-0.034637	0.002289	-0.008392	-0.16693	0.047455	0.027313	-0.009766	0.002747	-0.12604	-0.26093	-0.013885	0.14358	0.011292	-0.025635	-0.17288	0.061798	0.000305	-0.14893	0.000153	0.009766	0.017242	-0.009613	-0.014801
52.338	-0.001678	-0.077667	-0.081482	0.00351	-0.086823	-0.003052	0.095978	0.003815	-0.001221	-0.094757	-0.03006	-0.011444	0.35797	0.068054	0.025635	0.002136	-0.009613	-0.092773	-0.43304	-0.057373	0.04425	0.032349	-0.13809	-0.17822	0.018616	-0.000458	-0.035248	0.000458	-0.039978	-0.007477	-0.013275	-0.00885
